<?xml version="1.0" encoding="UTF-8"?>
<svg version="1.1" xmlns="http://www.w3.org/2000/svg" width="1250" height="478">
<path d="M0 0 C0.76634766 -0.00386719 1.53269531 -0.00773437 2.32226562 -0.01171875 C7.93572538 -0.00177462 7.93572538 -0.00177462 9.0625 1.125 C9.1930547 3.94923265 9.25921163 6.75029673 9.28369141 9.57617188 C9.2951973 10.46228653 9.30670319 11.34840118 9.31855774 12.2613678 C9.35539406 15.20545932 9.38494635 18.14957272 9.4140625 21.09375 C9.43716212 23.13017092 9.46055229 25.16658856 9.48422241 27.20300293 C9.53274904 31.47694147 9.57767189 35.75089921 9.62011719 40.02490234 C9.6749544 45.5166613 9.73877298 51.00827243 9.80529213 56.49990082 C9.85525096 60.7067301 9.90042525 64.9136002 9.94413376 69.12049866 C9.96577092 71.14601797 9.98892867 73.17152159 10.0135994 75.19700623 C10.04730616 78.02258912 10.07458304 80.84816103 10.10009766 83.67382812 C10.11147263 84.51957901 10.1228476 85.3653299 10.13456726 86.23670959 C10.14890977 88.19956766 10.11145512 90.1627001 10.0625 92.125 C8.04425141 94.14324859 4.09749071 93.71950163 1.3125 94 C-23.32267847 96.75069217 -46.87201569 106.84824732 -62.8046875 126.51953125 C-79.31785431 148.23060654 -85.58308564 173.74197357 -82.65332031 200.74414062 C-78.98509947 224.87769009 -66.03774737 245.61694574 -46.5625 260.1875 C-34.89784174 268.50497816 -21.26943433 273.17856941 -7.45996094 276.5793457 C-5.60527588 277.0421766 -3.76879474 277.57688626 -1.9375 278.125 C-1.6075 278.785 -1.2775 279.445 -0.9375 280.125 C-12.93217222 280.22545789 -24.91242442 280.25037467 -36.89920044 279.76063538 C-51.42877491 279.17481871 -65.93636991 279.05315352 -80.4765625 279.09765625 C-81.45442907 279.10033319 -82.43229565 279.10301014 -83.43979454 279.1057682 C-92.56359995 279.13204547 -101.6873263 279.17167319 -110.81103516 279.22094727 C-115.8652941 279.24769601 -120.91951099 279.26474346 -125.97382736 279.27581596 C-127.87881452 279.28199899 -129.78379348 279.29197048 -131.68873978 279.30589485 C-134.32591539 279.32508207 -136.96286174 279.33199952 -139.60009766 279.33618164 C-140.7624292 279.34932404 -140.7624292 279.34932404 -141.94824219 279.36273193 C-146.04911696 279.35529709 -149.28241103 279.04897363 -152.9375 277.125 C-157.06858473 272.43849292 -159.5022949 266.09452536 -161.875 260.375 C-162.38595215 259.14390503 -162.38595215 259.14390503 -162.90722656 257.88793945 C-180.97114151 213.3079919 -182.62488228 161.50017836 -164.29760742 116.70703125 C-153.31826911 90.97176478 -137.55995938 65.97979987 -115.9375 47.8203125 C-114.59529349 46.68258276 -113.28235215 45.50947803 -112 44.3046875 C-83.13392315 17.29741106 -39.57782308 -0.20703308 0 0 Z " fill="#1B34D8" transform="translate(183.9375,48.875)"/>
<path d="M0 0 C18.44534541 -0.1167545 36.89061594 -0.20494943 55.33625412 -0.25906086 C63.90072729 -0.28485258 72.46497099 -0.32002135 81.02929688 -0.37719727 C88.49318825 -0.42700291 95.95691346 -0.45928398 103.42096639 -0.47044247 C107.37393972 -0.47696615 111.32643764 -0.49231793 115.27925873 -0.52865028 C118.99920448 -0.56256544 122.71847863 -0.57306238 126.4385643 -0.56553841 C128.45606801 -0.56757185 130.47349841 -0.59449052 132.49081421 -0.62210083 C134.29127701 -0.61179085 134.29127701 -0.61179085 136.12811279 -0.60127258 C137.17158245 -0.60588155 138.21505211 -0.61049051 139.29014206 -0.61523914 C142.96637909 0.21940421 143.96681025 1.91927353 146 5 C169.3494435 44.19527591 172.88377103 95.43604784 162.27294922 138.98388672 C151.56916655 179.62596788 128.20010656 215.34119386 94.67089844 240.73046875 C93.19974338 241.84823706 91.74318851 242.98516636 90.2890625 244.125 C59.05973725 267.95537742 21.67041386 278 -17 278 C-17 247.64 -17 217.28 -17 186 C-10.73 185.01 -4.46 184.02 2 183 C5.24651167 182.18897019 8.20300227 181.42336806 11.3125 180.3125 C12.04339844 180.05903809 12.77429688 179.80557617 13.52734375 179.54443359 C24.93315909 175.40386431 34.91601201 169.03457422 44 161 C44.61101562 160.47148437 45.22203125 159.94296875 45.8515625 159.3984375 C62.4545482 144.00845532 72.2784207 119.89646789 73.22265625 97.5859375 C73.85292472 73.62347347 67.56593237 49.95846818 51 32.0625 C49.03280323 30.00707449 47.02934666 27.99392166 45 26 C44.31035156 25.31164062 43.62070313 24.62328125 42.91015625 23.9140625 C31.09861199 12.87663636 15.47892341 6.06589232 0 2 C0 1.34 0 0.68 0 0 Z " fill="#FCC212" transform="translate(212,142)"/>
<path d="M0 0 C0 1.98 0 3.96 0 6 C1.98 6 3.96 6 6 6 C6 11.94 6 17.88 6 24 C4.576875 24.20625 3.15375 24.4125 1.6875 24.625 C-2.22496633 25.46162802 -2.73757505 25.60238644 -5.0625 29.125 C-5.371875 30.07375 -5.68125 31.0225 -6 32 C-3.69 32 -1.38 32 1 32 C1 33.98 1 35.96 1 38 C2.98 37.505 2.98 37.505 5 37 C4.67 35.35 4.34 33.7 4 32 C11.59 32 19.18 32 27 32 C27.99 34.97 27.99 34.97 29 38 C30.12873535 37.98839844 30.12873535 37.98839844 31.28027344 37.9765625 C34 39 34 39 34.98352051 40.55761719 C35.9285825 42.8038123 36.7374336 45.0655798 37.515625 47.375 C37.81692322 48.21466309 38.11822144 49.05432617 38.4286499 49.91943359 C39.38849721 52.60653167 40.31979877 55.30251242 41.25 58 C42.20046303 60.69505661 43.1565446 63.38805704 44.11419678 66.08056641 C44.70846278 67.75798269 45.29734007 69.43731921 45.88043213 71.11865234 C46.93884486 74.84441658 46.93884486 74.84441658 49 78 C49.21075668 77.43845718 49.42151337 76.87691437 49.63865662 76.2983551 C51.82525877 70.47395872 54.01563706 64.65099288 56.20825195 58.82885742 C57.02693843 56.65344403 57.84464887 54.47766307 58.66137695 52.30151367 C59.8329062 49.18051428 61.00789559 46.06083718 62.18359375 42.94140625 C62.55028671 41.96224747 62.91697968 40.98308868 63.29478455 39.97425842 C63.80520042 38.62297096 63.80520042 38.62297096 64.32592773 37.24438477 C64.6257103 36.44718521 64.92549286 35.64998566 65.23435974 34.82862854 C66 33 66 33 67 32 C68.63472882 31.91299658 70.27314055 31.89298937 71.91015625 31.90234375 C72.89951172 31.90556641 73.88886719 31.90878906 74.90820312 31.91210938 C75.94912109 31.92048828 76.99003906 31.92886719 78.0625 31.9375 C79.62967773 31.94426758 79.62967773 31.94426758 81.22851562 31.95117188 C83.8190666 31.96300087 86.40950559 31.97948311 89 32 C88.01 34.97 88.01 34.97 87 38 C89.64 38 92.28 38 95 38 C94.30410181 42.95509309 92.33843263 47.26116418 90.37890625 51.8203125 C89.82165359 53.13300362 89.82165359 53.13300362 89.25314331 54.47221375 C88.44839967 56.36651763 87.64151494 58.25991304 86.83273315 60.15249634 C85.10807331 64.188415 83.3936734 68.22866475 81.67866516 72.26869202 C80.78815123 74.36619619 79.89710229 76.4634733 79.00553894 78.56053162 C74.44334864 89.29468702 69.93566246 100.05139012 65.4375 110.8125 C64.68516024 112.61125522 63.93280048 114.41000208 63.18041992 116.20874023 C57.7751185 129.13423934 52.38237541 142.0649365 47 155 C39.74 155 32.48 155 25 155 C25.495 152.03 25.495 152.03 26 149 C23.36 149 20.72 149 18 149 C19.67553547 143.41692015 21.76845427 138.18404306 24.2421875 132.91015625 C24.83891056 131.61800884 25.43525839 130.32568808 26.03125 129.03320312 C26.95133113 127.03993976 27.87957331 125.05306204 28.83691406 123.07739258 C33.3162919 114.47524001 33.3162919 114.47524001 33.33203125 105.14453125 C32.59794274 103.41073009 31.81305914 101.69820117 31 100 C30.47564886 98.73027415 29.9600992 97.45689442 29.45117188 96.1809082 C27.94942025 92.43438655 26.39285029 88.71370694 24.81790161 84.99743652 C23.12380514 80.99989334 21.44571041 76.99563439 19.765625 72.9921875 C19.43736221 72.21121704 19.10909943 71.43024658 18.77088928 70.62561035 C15.06453799 61.79658611 11.50397146 52.91105841 8 44 C7.67 47.63 7.34 51.26 7 55 C2.38 55 -2.24 55 -7 55 C-7 75.46 -7 95.92 -7 117 C-13.93 117 -20.86 117 -28 117 C-28 115.02 -28 113.04 -28 111 C-29.98 111 -31.96 111 -34 111 C-34 92.52 -34 74.04 -34 55 C-34.99 55 -35.98 55 -37 55 C-37 53.02 -37 51.04 -37 49 C-38.98 49 -40.96 49 -43 49 C-43 43.39 -43 37.78 -43 32 C-40.03 32 -37.06 32 -34 32 C-34.03480469 31.31035156 -34.06960938 30.62070313 -34.10546875 29.91015625 C-34.33242995 22.0313602 -33.63151459 15.13174368 -28.75 8.6875 C-20.49712311 0.62218849 -11.10363588 -0.41725563 0 0 Z " fill="#1B34D7" transform="translate(896,97)"/>
<path d="M0 0 C2.18198218 1.5591897 4.04605806 3.14889711 6 5 C6.33 2.36 6.66 -0.28 7 -3 C13.93 -3 20.86 -3 28 -3 C28 -1.02 28 0.96 28 3 C29.98 3 31.96 3 34 3 C34.06973806 14.02298859 34.1229317 25.04592405 34.15543652 36.06908894 C34.17104302 41.18847297 34.19218903 46.30770524 34.22631836 51.42700195 C34.25909148 56.3742489 34.27689067 61.32135054 34.28463173 66.26869774 C34.29014317 68.14919507 34.30090507 70.02968512 34.31719017 71.91012001 C34.440225 86.71568278 33.9449835 100.7355528 23.03125 112.0390625 C12.2114415 121.2515806 -0.20372599 121.93406656 -13.80078125 121.18017578 C-18.2269107 120.8175555 -21.99896297 119.90942022 -26 118 C-27.20076172 117.43152344 -27.20076172 117.43152344 -28.42578125 116.8515625 C-37.30254122 112.07495449 -46.05291061 104.36340184 -50.4140625 95.14453125 C-51.32626949 91.80585366 -51.62151406 88.43850905 -52 85 C-48.56294295 84.85494825 -45.12666967 84.76601986 -41.6875 84.6875 C-40.71103516 84.64560547 -39.73457031 84.60371094 -38.72851562 84.56054688 C-36.06394839 84.51476393 -33.62161149 84.51543949 -31 85 C-28.95703125 87.44921875 -28.95703125 87.44921875 -28 90 C-26.03327085 91.1500831 -26.03327085 91.1500831 -24 92 C-23.505 92.515625 -23.01 93.03125 -22.5 93.5625 C-19.2786799 96.64959843 -14.54271604 96.26528185 -10.31640625 96.23046875 C-6.762325 95.87685864 -4.1862074 94.5931037 -1 93 C-0.01 92.67 0.98 92.34 2 92 C4.09225501 87.9385638 4.95094058 83.42103614 6 79 C5.40832031 79.27714844 4.81664062 79.55429687 4.20703125 79.83984375 C-3.99453801 83.5994538 -3.99453801 83.5994538 -8 84 C-8.6084375 84.06316406 -9.216875 84.12632812 -9.84375 84.19140625 C-20.2297966 84.77468061 -29.55344437 81.11045328 -37.48828125 74.5859375 C-39 73 -39 73 -39 71 C-39.59941406 70.73058594 -40.19882812 70.46117187 -40.81640625 70.18359375 C-47.9315265 66.32691855 -51.31289844 58.25838589 -54 51 C-57.53949999 38.1108774 -55.63541256 23.35569186 -49.3125 11.8125 C-44.81467535 4.77290712 -39.04326243 -0.50000987 -31.1015625 -3.33984375 C-20.92062496 -5.50681912 -9.07194705 -5.56768515 0 0 Z M-22.8125 26.6875 C-26.76802016 32.67728767 -28.77455469 38.7708229 -28 46 C-26.34801181 52.76784337 -26.34801181 52.76784337 -22 58 C-16.75005866 59.74998045 -10.84998837 60.13716424 -5.640625 58.05859375 C1.10165838 54.01575842 4.46888455 49.23908998 6.52734375 41.69140625 C7.52758165 35.99583674 6.68376252 30.97931256 4.8125 25.5625 C2.47677951 22.26027448 0.84146448 21.28048816 -3 20 C-11.09119322 18.78632102 -16.97272697 21.10727244 -22.8125 26.6875 Z " fill="#1B34D7" transform="translate(618,282)"/>
<path d="M0 0 C1.74796548 1.41783283 3.3695375 2.76475269 4.83984375 4.46875 C4.83984375 5.12875 4.83984375 5.78875 4.83984375 6.46875 C9.12392553 5.99274091 10.92898441 3.44891551 13.83984375 0.46875 C22.73383696 -6.15443643 32.14888822 -6.56769746 42.83984375 -5.53125 C49.48282004 -4.05129579 55.35881507 -0.72449516 59.83984375 4.46875 C59.83984375 5.12875 59.83984375 5.78875 59.83984375 6.46875 C60.43667969 6.7265625 61.03351563 6.984375 61.6484375 7.25 C64.04168301 8.58100285 65.24107331 9.8068834 66.90234375 11.96875 C67.38832031 12.5771875 67.87429688 13.185625 68.375 13.8125 C72.85571771 21.93753478 73.25757139 30.15645877 73.1328125 39.2578125 C73.12856766 40.44224945 73.12432281 41.6266864 73.11994934 42.84701538 C73.10327908 46.59616713 73.06564788 50.34476321 73.02734375 54.09375 C73.01228189 56.64973177 72.99859612 59.20572204 72.98632812 61.76171875 C72.95341364 67.99760696 72.90171181 74.23308456 72.83984375 80.46875 C65.90984375 80.46875 58.97984375 80.46875 51.83984375 80.46875 C51.83984375 78.48875 51.83984375 76.50875 51.83984375 74.46875 C49.85984375 74.46875 47.87984375 74.46875 45.83984375 74.46875 C45.8317569 73.88072601 45.82367004 73.29270203 45.81533813 72.68685913 C45.72913408 66.55453235 45.62962373 60.42252292 45.52246094 54.29052734 C45.48422996 52.00347228 45.4493669 49.71635829 45.41796875 47.42919922 C45.37219084 44.13748143 45.31421664 40.8461672 45.25390625 37.5546875 C45.24235504 36.53571381 45.23080383 35.51674011 45.21890259 34.46688843 C45.09118037 27.26068593 45.09118037 27.26068593 42.83984375 20.46875 C37.24167312 18.60269312 31.86562677 18.68047516 26.46484375 21.15625 C22.48489488 23.39546577 20.60096413 25.92173771 19.28627014 30.32122803 C18.79196073 32.69908996 18.67925458 34.90073338 18.63452148 37.32910156 C18.61457626 38.28979553 18.59463104 39.2504895 18.57408142 40.24029541 C18.55736893 41.26959167 18.54065643 42.29888794 18.5234375 43.359375 C18.49226585 44.94900055 18.49226585 44.94900055 18.46046448 46.57073975 C18.39512189 49.95334438 18.33615494 53.33602612 18.27734375 56.71875 C18.234144 59.01302878 18.19052924 61.30729979 18.14648438 63.6015625 C18.03867582 69.22388048 17.93948822 74.84625766 17.83984375 80.46875 C10.90984375 80.46875 3.97984375 80.46875 -3.16015625 80.46875 C-3.16015625 78.48875 -3.16015625 76.50875 -3.16015625 74.46875 C-5.14015625 74.46875 -7.12015625 74.46875 -9.16015625 74.46875 C-9.1682431 73.88072601 -9.17632996 73.29270203 -9.18466187 72.68685913 C-9.27086592 66.55453235 -9.37037627 60.42252292 -9.47753906 54.29052734 C-9.51577004 52.00347228 -9.5506331 49.71635829 -9.58203125 47.42919922 C-9.62780916 44.13748143 -9.68578336 40.8461672 -9.74609375 37.5546875 C-9.75764496 36.53571381 -9.76919617 35.51674011 -9.78109741 34.46688843 C-9.90881963 27.26068593 -9.90881963 27.26068593 -12.16015625 20.46875 C-17.56957915 18.66560903 -22.53657805 18.98966135 -27.97265625 20.59375 C-32.54844064 23.28538788 -34.50304399 26.49741322 -36.16015625 31.46875 C-36.27486637 33.07899513 -36.33643365 34.69330855 -36.36547852 36.30737305 C-36.38542374 37.2881633 -36.40536896 38.26895355 -36.42591858 39.27946472 C-36.45098732 40.86396172 -36.45098732 40.86396172 -36.4765625 42.48046875 C-36.4973436 43.56383011 -36.51812469 44.64719147 -36.53953552 45.76338196 C-36.60497422 49.22760616 -36.66388978 52.6919068 -36.72265625 56.15625 C-36.76584686 58.50326315 -36.80946132 60.85026853 -36.85351562 63.19726562 C-36.96064986 68.95434854 -37.06193352 74.71150842 -37.16015625 80.46875 C-44.09015625 80.46875 -51.02015625 80.46875 -58.16015625 80.46875 C-58.16015625 78.48875 -58.16015625 76.50875 -58.16015625 74.46875 C-60.14015625 74.46875 -62.12015625 74.46875 -64.16015625 74.46875 C-64.16015625 48.39875 -64.16015625 22.32875 -64.16015625 -4.53125 C-57.23015625 -4.53125 -50.30015625 -4.53125 -43.16015625 -4.53125 C-43.16015625 -2.55125 -43.16015625 -0.57125 -43.16015625 1.46875 C-42.4125 1.04722656 -41.66484375 0.62570313 -40.89453125 0.19140625 C-39.9096875 -0.35644531 -38.92484375 -0.90429688 -37.91015625 -1.46875 C-36.935625 -2.01402344 -35.96109375 -2.55929688 -34.95703125 -3.12109375 C-24.35533443 -8.46636268 -9.51223191 -6.74284793 0 0 Z " fill="#1B34D6" transform="translate(602.16015625,133.53125)"/>
<path d="M0 0 C59.10810811 0 59.10810811 0 77.625 16.3125 C78.800625 17.6428125 78.800625 17.6428125 80 19 C80.62648438 19.69609375 81.25296875 20.3921875 81.8984375 21.109375 C94.01243374 35.24987619 95.15236895 50.11574898 94 68 C93.24686753 72.40990822 92.03954711 76.02984302 90 80 C89.51402344 80.94875 89.02804687 81.8975 88.52734375 82.875 C81.75137417 94.66486669 71.32785905 101.18818425 58.51416016 105.05078125 C53.32823098 106.32061681 48.25020349 106.25088812 42.9375 106.1953125 C41.90560547 106.1924826 40.87371094 106.18965271 39.81054688 106.18673706 C36.54024268 106.17561252 33.27022032 106.15052226 30 106.125 C27.77213939 106.11496022 25.54427446 106.10583612 23.31640625 106.09765625 C17.87750929 106.07569855 12.43877479 106.0422986 7 106 C7 104.02 7 102.04 7 100 C4.69 100 2.38 100 0 100 C0 67 0 34 0 0 Z M27 24 C27 43.47 27 62.94 27 83 C43.7061714 83.04975951 43.7061714 83.04975951 57.94140625 75.20703125 C65.63981691 66.89789073 67.31082622 58.48529348 67.22265625 47.36328125 C66.90592604 42.5789881 65.76948643 38.43617725 64 34 C63.62875 33.05125 63.2575 32.1025 62.875 31.125 C58.81515026 26.52383696 52.82649971 25.16529994 47 24 C40.4 24 33.8 24 27 24 Z " fill="#1B34D7" transform="translate(426,258)"/>
<path d="M0 0 C1.4381106 1.16296188 2.80094999 2.41728838 4.15625 3.67578125 C4.94 4.39765625 5.72375 5.11953125 6.53125 5.86328125 C19.66300492 19.93301866 24.85900539 32.59390743 24.46484375 51.68359375 C23.86667924 64.85314097 17.87752534 77.04898632 8.2265625 86.05078125 C-2.39287382 94.38603693 -13.30941812 98.26270523 -26.71875 98.11328125 C-27.68401611 98.10498291 -28.64928223 98.09668457 -29.64379883 98.08813477 C-36.96576644 97.91487389 -43.23738749 97.01404941 -49.84375 93.67578125 C-50.72417969 93.23621094 -51.60460937 92.79664063 -52.51171875 92.34375 C-66.45691959 84.39518675 -78.66067082 71.18136859 -83.21875 55.61328125 C-85.7252928 39.8220616 -85.09291173 24.70780249 -76.0546875 10.953125 C-67.9589829 0.26098925 -56.83645049 -7.55295378 -43.4765625 -10.04296875 C-27.50679289 -11.7489382 -13.31601055 -9.56382961 0 0 Z M-50.84375 25.67578125 C-56.6514408 34.15763476 -58.17037748 44.55847323 -56.30859375 54.546875 C-54.84024525 60.46038783 -53.37028536 66.37908805 -47.984375 69.88671875 C-40.24514456 73.98909278 -32.48511626 74.73033552 -23.96875 72.73828125 C-16.53056877 70.30480221 -10.14706687 64.63266525 -6.34375 57.80078125 C-2.04941584 47.52287248 -1.79316524 36.65181407 -5.65625 26.23828125 C-8.00327806 20.95955622 -10.0722742 18.57762348 -15.28125 15.92578125 C-28.82833649 11.3258377 -41.58270516 15.31754435 -50.84375 25.67578125 Z " fill="#1B34D7" transform="translate(505.84375,117.32421875)"/>
<path d="M0 0 C3.1075517 1.77012439 5.65379922 3.54031399 8.0625 6.1875 C8.3925 3.5475 8.7225 0.9075 9.0625 -1.8125 C15.9925 -1.8125 22.9225 -1.8125 30.0625 -1.8125 C30.0625 0.1675 30.0625 2.1475 30.0625 4.1875 C32.3725 4.1875 34.6825 4.1875 37.0625 4.1875 C37.0625 30.2575 37.0625 56.3275 37.0625 83.1875 C30.1325 83.1875 23.2025 83.1875 16.0625 83.1875 C16.0625 81.2075 16.0625 79.2275 16.0625 77.1875 C11.39638918 79.17029843 11.39638918 79.17029843 6.76953125 81.2421875 C-2.84846129 85.65647553 -12.76718847 86.90100191 -22.9375 83.1875 C-36.58292765 76.40539757 -45.8659012 65.97723683 -51.1875 51.875 C-53.84381677 38.81477586 -53.62476287 25.06544283 -46.9375 13.1875 C-36.31268992 -1.6524699 -16.98627924 -8.40987355 0 0 Z M-19.75 27.875 C-23.67595882 33.82002335 -25.80328549 40.01384879 -24.9375 47.1875 C-23.94386352 51.02849262 -22.93023155 54.74447099 -20.9375 58.1875 C-15.65865155 61.11726089 -9.47191592 61.17239897 -3.72265625 59.5703125 C1.77299614 57.18640187 5.04126768 53.27864235 8.0625 48.1875 C10.27962158 41.53613526 10.31440106 32.87336602 7.375 26.4375 C4.54456738 22.44624283 4.54456738 22.44624283 0.0625 21.1875 C-8.12897837 20.21456579 -13.79726616 22.18683211 -19.75 27.875 Z " fill="#1B34D7" transform="translate(805.9375,280.8125)"/>
<path d="M0 0 C1.0828125 1.0209375 1.0828125 1.0209375 2.1875 2.0625 C2.991875 2.805 3.79625 3.5475 4.625 4.3125 C15.92507223 16.43940678 17.36816538 27.30224436 17.28515625 43.44140625 C17.2837413 44.49408188 17.28232635 45.54675751 17.28086853 46.6313324 C17.27531296 49.96258499 17.26276888 53.29376804 17.25 56.625 C17.24497925 58.8964834 17.24041735 61.16796786 17.23632812 63.43945312 C17.226213 68.98051649 17.20662912 74.52143126 17.1875 80.0625 C10.2575 80.0625 3.3275 80.0625 -3.8125 80.0625 C-3.8125 78.0825 -3.8125 76.1025 -3.8125 74.0625 C-6.1225 74.0625 -8.4325 74.0625 -10.8125 74.0625 C-10.82280746 73.43245056 -10.83311493 72.80240112 -10.84373474 72.15325928 C-10.95185941 65.59962715 -11.06645274 59.04613085 -11.18481445 52.49267578 C-11.22814412 50.04641561 -11.26982061 47.60012558 -11.30981445 45.15380859 C-11.36756438 41.63890582 -11.43124562 38.12415309 -11.49609375 34.609375 C-11.51280624 33.5144574 -11.52951874 32.41953979 -11.54673767 31.29144287 C-11.5766555 29.76030853 -11.5766555 29.76030853 -11.60717773 28.19824219 C-11.63049416 26.85255157 -11.63049416 26.85255157 -11.65428162 25.47967529 C-11.80252029 23.21496468 -12.18159805 21.23689556 -12.8125 19.0625 C-24.1196335 18.21115664 -24.1196335 18.21115664 -33.8125 23.0625 C-38.28468186 29.91984551 -37.99025097 37.58269551 -38.12890625 45.4921875 C-38.14968735 46.48251984 -38.17046844 47.47285217 -38.19187927 48.49319458 C-38.2570032 51.64122918 -38.31608629 54.78934367 -38.375 57.9375 C-38.41822059 60.0781331 -38.46183599 62.21875826 -38.50585938 64.359375 C-38.61338558 69.59366948 -38.71273514 74.82802886 -38.8125 80.0625 C-45.4125 80.0625 -52.0125 80.0625 -58.8125 80.0625 C-58.8125 78.0825 -58.8125 76.1025 -58.8125 74.0625 C-61.1225 74.0625 -63.4325 74.0625 -65.8125 74.0625 C-65.8125 47.9925 -65.8125 21.9225 -65.8125 -4.9375 C-58.8825 -4.9375 -51.9525 -4.9375 -44.8125 -4.9375 C-44.8125 -2.9575 -44.8125 -0.9775 -44.8125 1.0625 C-43.99265625 0.64097656 -43.1728125 0.21945313 -42.328125 -0.21484375 C-40.71164062 -1.03662109 -40.71164062 -1.03662109 -39.0625 -1.875 C-37.99515625 -2.42027344 -36.9278125 -2.96554688 -35.828125 -3.52734375 C-24.43426699 -8.85530067 -10.16789127 -7.00454732 0 0 Z " fill="#1B34D7" transform="translate(791.8125,133.9375)"/>
<path d="M0 0 C6.93 0 13.86 0 21 0 C21 1.98 21 3.96 21 6 C22.98 6 24.96 6 27 6 C27 10.62 27 15.24 27 20 C30.63 20 34.26 20 38 20 C38 21.98 38 23.96 38 26 C40.31 26 42.62 26 45 26 C45 31.61 45 37.22 45 43 C39.06 43 33.12 43 27 43 C27 55.87 27 68.74 27 82 C30.63 82 34.26 82 38 82 C38 83.98 38 85.96 38 88 C40.31 88 42.62 88 45 88 C45 93.61 45 99.22 45 105 C41.37370966 105.13621291 37.75263923 105.23470136 34.125 105.3125 C33.11179687 105.35439453 32.09859375 105.39628906 31.0546875 105.43945312 C22.27834678 105.58009961 15.84794356 103.33488442 9.1875 97.5625 C8.465625 96.716875 7.74375 95.87125 7 95 C6.113125 94.030625 5.22625 93.06125 4.3125 92.0625 C-0.12103158 86.19106628 -0.2817961 80.73504589 -0.1953125 73.6640625 C-0.1924826 72.78471039 -0.18965271 71.90535828 -0.18673706 70.99935913 C-0.17559712 68.20776406 -0.15050411 65.4164971 -0.125 62.625 C-0.1149622 60.72526507 -0.10583775 58.82552508 -0.09765625 56.92578125 C-0.07567806 52.28372893 -0.0411911 47.64191998 0 43 C-0.99 43 -1.98 43 -3 43 C-3 41.02 -3 39.04 -3 37 C-5.31 37 -7.62 37 -10 37 C-10 31.39 -10 25.78 -10 20 C-6.7 20 -3.4 20 0 20 C0 13.4 0 6.8 0 0 Z " fill="#1B34D7" transform="translate(707,259)"/>
<path d="M0 0 C6.93 0 13.86 0 21 0 C21 1.98 21 3.96 21 6 C22.98 6 24.96 6 27 6 C27 40.98 27 75.96 27 112 C20.07 112 13.14 112 6 112 C6 110.02 6 108.04 6 106 C4.02 106 2.04 106 0 106 C0 71.02 0 36.04 0 0 Z " fill="#1B34D6" transform="translate(855,252)"/>
<path d="M0 0 C6.93 0 13.86 0 21 0 C21 1.98 21 3.96 21 6 C22.98 6 24.96 6 27 6 C27 32.07 27 58.14 27 85 C20.07 85 13.14 85 6 85 C6 83.02 6 81.04 6 79 C4.02 79 2.04 79 0 79 C0 52.93 0 26.86 0 0 Z " fill="#1B34D6" transform="translate(664,279)"/>
<path d="M0 0 C6.93 0 13.86 0 21 0 C21 1.98 21 3.96 21 6 C22.98 6 24.96 6 27 6 C27 32.07 27 58.14 27 85 C20.07 85 13.14 85 6 85 C6 83.02 6 81.04 6 79 C4.02 79 2.04 79 0 79 C0 52.93 0 26.86 0 0 Z " fill="#1B34D7" transform="translate(687,129)"/>
<path d="M0 0 C6.93 0 13.86 0 21 0 C21 1.98 21 3.96 21 6 C22.98 6 24.96 6 27 6 C27 32.07 27 58.14 27 85 C20.4 85 13.8 85 7 85 C7 83.02 7 81.04 7 79 C4.69 79 2.38 79 0 79 C0 52.93 0 26.86 0 0 Z " fill="#1B34D7" transform="translate(528,279)"/>
<path d="M0 0 C6.93 0 13.86 0 21 0 C21 1.98 21 3.96 21 6 C22.98 6 24.96 6 27 6 C27 32.07 27 58.14 27 85 C20.4 85 13.8 85 7 85 C7 83.02 7 81.04 7 79 C4.69 79 2.38 79 0 79 C0 52.93 0 26.86 0 0 Z " fill="#1B34D7" transform="translate(820,129)"/>
<path d="M0 0 C15 0 15 0 21 3 C21.66 3.66 22.32 4.32 23 5 C25.42715206 5.67940467 25.42715206 5.67940467 28.125 6.125 C29.73375 6.41375 31.3425 6.7025 33 7 C34.32 10.96 35.64 14.92 37 19 C37.9590625 16.6178125 37.9590625 16.6178125 38.9375 14.1875 C39.29714844 13.29417969 39.65679688 12.40085937 40.02734375 11.48046875 C40.73613486 9.6729091 41.3860247 7.84192591 42 6 C45.63 6 49.26 6 53 6 C53 4.02 53 2.04 53 0 C59.75 -0.125 59.75 -0.125 62 1 C62 2.65 62 4.3 62 6 C64.475 6.495 64.475 6.495 67 7 C67 8.98 67 10.96 67 13 C65.35 13 63.7 13 62 13 C62 16.96 62 20.92 62 25 C63.65 25.33 65.3 25.66 67 26 C67 27.98 67 29.96 67 32 C62.45567555 32.44552201 59.08300305 32.58662665 55 30.375 C51.79766389 24.97105782 52.09190627 19.17443052 52 13 C51.34 13 50.68 13 50 13 C47.69 19.27 45.38 25.54 43 32 C40.03 32 37.06 32 34 32 C30.80847206 28.80847206 29.87666455 26.67110547 28.3125 22.5 C27.87550781 21.3553125 27.43851563 20.210625 26.98828125 19.03125 C26 16 26 16 26 13 C25.34 13 24.68 13 24 13 C23.896875 13.598125 23.79375 14.19625 23.6875 14.8125 C22.89363064 17.33844795 22.04427591 18.34885407 20 20 C17.24921116 20.91692961 15.64051087 21.10886083 12.8125 21.0625 C10.9253125 21.0315625 10.9253125 21.0315625 9 21 C9 24.63 9 28.26 9 32 C2.25 32.125 2.25 32.125 0 31 C0 20.77 0 10.54 0 0 Z M9 7 C9 9.31 9 11.62 9 14 C10.65 13.67 12.3 13.34 14 13 C14.38218767 11.34385343 14.71395102 9.67542976 15 8 C13.93354885 6.70366379 13.93354885 6.70366379 11.4375 6.9375 C10.633125 6.958125 9.82875 6.97875 9 7 Z " fill="#192FCB" transform="translate(900,277)"/>
<path d="M0 0 C2.97 0 5.94 0 9 0 C8.30410181 4.95509309 6.33843263 9.26116418 4.37890625 13.8203125 C3.82165359 15.13300362 3.82165359 15.13300362 3.25314331 16.47221375 C2.44839967 18.36651763 1.64151494 20.25991304 0.83273315 22.15249634 C-0.89192669 26.188415 -2.6063266 30.22866475 -4.32133484 34.26869202 C-5.21184877 36.36619619 -6.10289771 38.4634733 -6.99446106 40.56053162 C-11.55665136 51.29468702 -16.06433754 62.05139012 -20.5625 72.8125 C-21.31483976 74.61125522 -22.06719952 76.41000208 -22.81958008 78.20874023 C-28.2248815 91.13423934 -33.61762459 104.0649365 -39 117 C-46.26 117 -53.52 117 -61 117 C-60 111 -60 111 -59 110 C-56.81707226 109.76518307 -54.62796826 109.58636677 -52.4375 109.4375 C-51.23996094 109.35371094 -50.04242187 109.26992187 -48.80859375 109.18359375 C-47.88175781 109.12300781 -46.95492187 109.06242187 -46 109 C-36.37379744 86.42764259 -26.8141029 63.8288965 -17.35253906 41.18701172 C-11.60795917 27.44108639 -5.82568659 13.71177278 0 0 Z " fill="#090957" transform="translate(982,135)"/>
<path d="M0 0 C2.31 0 4.62 0 7 0 C7.06973806 11.02298859 7.1229317 22.04592405 7.15543652 33.06908894 C7.17104302 38.18847297 7.19218903 43.30770524 7.22631836 48.42700195 C7.25909148 53.3742489 7.27689067 58.32135054 7.28463173 63.26869774 C7.29014317 65.14919507 7.30090507 67.02968512 7.31719017 68.91012001 C7.440225 83.71568278 6.9449835 97.7355528 -3.96875 109.0390625 C-14.7885585 118.2515806 -27.20372599 118.93406656 -40.80078125 118.18017578 C-49.1177047 117.49879373 -56.35855911 113.9841272 -63 109 C-64.78515625 106.80859375 -64.78515625 106.80859375 -66 105 C-65.29488281 105.28617187 -64.58976563 105.57234375 -63.86328125 105.8671875 C-49.93948695 111.37591921 -35.24801143 113.93101759 -20.89453125 108.15234375 C-12.17539789 104.11176976 -7.15175582 98.62864915 -3 90 C-1.21284735 84.70723521 -0.69700743 80.09787529 -0.68115234 74.58618164 C-0.67110672 73.7756131 -0.6610611 72.96504456 -0.65071106 72.12991333 C-0.62002962 69.47333429 -0.60288609 66.81685533 -0.5859375 64.16015625 C-0.56721373 62.30927173 -0.54763942 60.45839563 -0.5272522 58.60752869 C-0.47605271 53.75297019 -0.43636195 48.89838405 -0.39910889 44.04370117 C-0.35899266 39.08310172 -0.30793515 34.12261603 -0.2578125 29.16210938 C-0.16119755 19.44148631 -0.0767468 9.72079882 0 0 Z " fill="#090A59" transform="translate(645,285)"/>
<path d="M0 0 C8.60260812 6.37448835 14.15997402 16.50423052 16 27 C17.01654207 38.77142367 17.51863215 51.25749943 12 62 C11.51402344 62.94875 11.02804687 63.8975 10.52734375 64.875 C3.75137417 76.66486669 -6.67214095 83.18818425 -19.48583984 87.05078125 C-24.67176902 88.32061681 -29.74979651 88.25088812 -35.0625 88.1953125 C-36.09439453 88.1924826 -37.12628906 88.18965271 -38.18945312 88.18673706 C-41.45975732 88.17561252 -44.72977968 88.15052226 -48 88.125 C-50.22786061 88.11496022 -52.45572554 88.10583612 -54.68359375 88.09765625 C-60.12249071 88.07569855 -65.56122521 88.0422986 -71 88 C-71 86.02 -71 84.04 -71 82 C-69.42871338 81.97812622 -69.42871338 81.97812622 -67.82568359 81.95581055 C-63.87045239 81.8970281 -59.91574406 81.81981542 -55.9609375 81.73754883 C-54.26213178 81.70466975 -52.5632265 81.67652795 -50.86425781 81.65356445 C-33.6801641 81.41517827 -16.90146282 80.12572808 -3.62109375 67.80078125 C6.54369334 56.50929486 9.9142353 42.90844204 9.31640625 28.05078125 C8.71614101 18.87038058 6.3023366 11.62249152 1.20703125 3.9609375 C0 2 0 2 0 0 Z " fill="#090957" transform="translate(504,276)"/>
<path d="M0 0 C9.78755621 6.52503747 14.53527677 17.88887901 17 29 C18.49826409 46.63818478 15.61373695 60.92363092 4.4140625 74.9921875 C-3.8694838 84.08388466 -16.12193958 89.82393625 -28.3671875 90.43359375 C-30.20297484 90.45711051 -32.03917601 90.45795711 -33.875 90.4375 C-34.84026611 90.42920166 -35.80553223 90.42090332 -36.80004883 90.41235352 C-48.81700773 90.12799432 -58.51611794 86.5028738 -68 79 C-69.38171459 77.37321779 -70.72927998 75.71488373 -72 74 C-71.44957031 74.2784375 -70.89914062 74.556875 -70.33203125 74.84375 C-67.79962803 76.09934691 -65.25161672 77.31042393 -62.6875 78.5 C-61.78386719 78.9228125 -60.88023437 79.345625 -59.94921875 79.78125 C-48.2760584 84.60512553 -34.37696884 84.94254778 -22.375 80.9375 C-9.83144617 75.68157427 0.26437766 67.15956554 5.96875 54.65234375 C11.11310323 41.42122312 11.9303708 27.44976153 7 14 C5.54694713 11.01064644 3.99404302 8.13916242 2.3046875 5.27734375 C1 3 1 3 0 0 Z " fill="#090957" transform="translate(513,125)"/>
<path d="M0 0 C1.98 0 3.96 0 6 0 C6 34.98 6 69.96 6 106 C-0.93 106 -7.86 106 -15 106 C-15 104.02 -15 102.04 -15 100 C-10.05 100 -5.1 100 0 100 C0 67 0 34 0 0 Z " fill="#090957" transform="translate(876,258)"/>
<path d="M0 0 C3.1357078 1.97685927 5.39028296 4.0662338 7.875 6.8125 C8.6175 7.59625 9.36 8.38 10.125 9.1875 C12.36634206 12.54951309 12.80541036 14.77630084 12.875 18.8125 C11.73309719 22.6188427 10.71640413 25.02209006 7.8125 27.75 C3.45255193 29.32700249 -0.54516888 29.47517653 -5.125 28.8125 C-11.00982035 25.81457265 -16.42433324 20.92453531 -19.125 14.8125 C-19.71404824 10.8505454 -19.49079651 7.72699127 -18 4 C-13.12663196 -1.68559605 -6.83885542 -2.59876506 0 0 Z " fill="#1B34D7" transform="translate(681.125,247.1875)"/>
<path d="M0 0 C4.71869534 1.79310423 7.59464369 4.32579977 11 8 C11.7425 8.5775 12.485 9.155 13.25 9.75 C15.93772908 13.20565167 16.18696061 16.69242748 16 21 C14.81801486 24.54595541 13.68614368 26.37623302 10.9375 28.875 C6.42492991 30.60321833 2.74251216 31.16388874 -2 30 C-8.30845566 26.19018756 -13.2353248 21.93897099 -16 15 C-16.38267957 11.80750882 -16.03218327 9.04606259 -15 6 C-10.79704079 0.83182632 -6.45271032 -0.43018069 0 0 Z " fill="#1B34D7" transform="translate(542,246)"/>
<path d="M0 0 C4.71869534 1.79310423 7.59464369 4.32579977 11 8 C11.7425 8.5775 12.485 9.155 13.25 9.75 C15.93772908 13.20565167 16.18696061 16.69242748 16 21 C14.81801486 24.54595541 13.68614368 26.37623302 10.9375 28.875 C6.42492991 30.60321833 2.74251216 31.16388874 -2 30 C-8.30845566 26.19018756 -13.2353248 21.93897099 -16 15 C-16.38267957 11.80750882 -16.03218327 9.04606259 -15 6 C-10.79704079 0.83182632 -6.45271032 -0.43018069 0 0 Z " fill="#1B34D7" transform="translate(834,96)"/>
<path d="M0 0 C3.1357078 1.97685927 5.39028296 4.0662338 7.875 6.8125 C8.638125 7.534375 9.40125 8.25625 10.1875 9 C12.70389949 13.19399914 12.78102054 17.04637514 11.875 21.8125 C10.17875149 24.92959136 8.09641825 27.20179088 4.875 28.8125 C-0.11999389 29.30315157 -4.59597488 29.70997127 -9 27.125 C-9.70125 26.361875 -10.4025 25.59875 -11.125 24.8125 C-11.99125 23.9875 -12.8575 23.1625 -13.75 22.3125 C-19.55429088 16.20272013 -19.55429088 16.20272013 -19.5625 10.875 C-19.44950863 7.38767553 -19.18725628 5.92317782 -17.4375 2.8125 C-12.18256082 -1.73231226 -6.52554096 -2.47970556 0 0 Z " fill="#1B34D7" transform="translate(704.125,97.1875)"/>
<path d="M0 0 C3.17934197 1.73178294 4.52877124 2.72303248 5.69140625 6.2109375 C4.51384766 6.15873047 4.51384766 6.15873047 3.3125 6.10546875 C-5.44158711 5.87518614 -5.44158711 5.87518614 -13.30859375 9.2109375 C-16.8978227 13.74470039 -18.41090422 17.32504778 -18.51391602 23.04956055 C-18.53386124 24.0303508 -18.55380646 25.01114105 -18.57435608 26.02165222 C-18.59942482 27.60614922 -18.59942482 27.60614922 -18.625 29.22265625 C-18.6457811 30.30601761 -18.66656219 31.38937897 -18.68797302 32.50556946 C-18.75341172 35.96979366 -18.81232728 39.4340943 -18.87109375 42.8984375 C-18.91428436 45.24545065 -18.95789882 47.59245603 -19.00195312 49.93945312 C-19.10908736 55.69653604 -19.21037102 61.45369592 -19.30859375 67.2109375 C-26.23859375 67.2109375 -33.16859375 67.2109375 -40.30859375 67.2109375 C-40.30859375 65.2309375 -40.30859375 63.2509375 -40.30859375 61.2109375 C-35.68859375 61.2109375 -31.06859375 61.2109375 -26.30859375 61.2109375 C-26.32954102 59.76847656 -26.35048828 58.32601562 -26.37207031 56.83984375 C-26.44471719 51.46510832 -26.4904836 46.09041593 -26.52832031 40.71533203 C-26.54837952 38.39331757 -26.57563366 36.07135327 -26.61035156 33.74951172 C-26.65911916 30.40319405 -26.68162018 27.05754691 -26.69921875 23.7109375 C-26.71986389 22.6804126 -26.74050903 21.6498877 -26.76177979 20.58813477 C-26.76372515 14.27529588 -25.98857037 9.45436364 -22.30859375 4.2109375 C-16.30191446 -1.50273305 -7.88271704 -2.694262 0 0 Z " fill="#0A0A5A" transform="translate(584.30859375,146.7890625)"/>
<path d="M0 0 C2.31 0 4.62 0 7 0 C7 0.66 7 1.32 7 2 C7.66 2 8.32 2 9 2 C9 12.89 9 23.78 9 35 C6 35 3 35 0 35 C-0.64453125 35.11859375 -1.2890625 35.2371875 -1.953125 35.359375 C-6.15496844 36.07397423 -8.36593159 36.29908887 -12.3125 34.4375 C-15.92196147 31.16380238 -18.63350632 28.56545573 -19.34765625 23.56640625 C-19.51583368 18.64538827 -19.37717781 14.84299544 -16 11 C-12.06753613 7.83218188 -8.97455239 7.5393933 -4 8 C-3.01 8.66 -2.02 9.32 -1 10 C-0.67 6.7 -0.34 3.4 0 0 Z M-7.75 17.5625 C-10.29822352 19.84397441 -10.29822352 19.84397441 -10.375 23.1875 C-10.30323831 25.89924505 -10.30323831 25.89924505 -9 27 C-6.08461971 27.50042146 -6.08461971 27.50042146 -3 27 C-0.90237966 24.89299553 -0.90237966 24.89299553 0 22 C-0.21329449 19.25760857 -0.21329449 19.25760857 -1 17 C-4.02569575 15.65524633 -4.79957217 15.88612055 -7.75 17.5625 Z " fill="#1B33D6" transform="translate(954,320)"/>
<path d="M0 0 C1.36422015 1.64148072 2.70213607 3.30556653 4 5 C3.07058594 4.95359375 2.14117188 4.9071875 1.18359375 4.859375 C-8.68877853 4.43433103 -8.68877853 4.43433103 -17 9 C-21.47218186 15.85734551 -21.17775097 23.52019551 -21.31640625 31.4296875 C-21.33718735 32.42001984 -21.35796844 33.41035217 -21.37937927 34.43069458 C-21.4445032 37.57872918 -21.50358629 40.72684367 -21.5625 43.875 C-21.60572059 46.0156331 -21.64933599 48.15625826 -21.69335938 50.296875 C-21.80088558 55.53116948 -21.90023514 60.76552886 -22 66 C-28.6 66 -35.2 66 -42 66 C-42 64.02 -42 62.04 -42 60 C-37.38 60 -32.76 60 -28 60 C-28.02356567 57.83630859 -28.02356567 57.83630859 -28.04760742 55.62890625 C-28.10209303 50.25412628 -28.13641795 44.87937052 -28.16479492 39.50439453 C-28.17983911 37.1824126 -28.20027945 34.86045888 -28.22631836 32.53857422 C-28.26289345 29.19231177 -28.27977054 25.84642656 -28.29296875 22.5 C-28.30845261 21.4694751 -28.32393646 20.4389502 -28.33988953 19.37719727 C-28.34141803 12.76374328 -28.01541842 6.29527163 -23.31640625 1.16015625 C-22.73761719 0.79792969 -22.15882813 0.43570313 -21.5625 0.0625 C-20.98628906 -0.31777344 -20.41007813 -0.69804687 -19.81640625 -1.08984375 C-13.26001513 -4.37508919 -6.05553432 -3.99114762 0 0 Z " fill="#090957" transform="translate(775,148)"/>
<path d="M0 0 C1.65 0 3.3 0 5 0 C6 1 6 1 6.09765625 4.59765625 C6.0909822 6.08596867 6.07902183 7.57426432 6.0625 9.0625 C6.05798828 9.82111328 6.05347656 10.57972656 6.04882812 11.36132812 C6.0370068 13.24091871 6.01907078 15.12046899 6 17 C1.38 17 -3.24 17 -8 17 C-8 37.46 -8 57.92 -8 79 C-14.93 79 -21.86 79 -29 79 C-29 77.02 -29 75.04 -29 73 C-24.05 73 -19.1 73 -14 73 C-14 52.54 -14 32.08 -14 11 C-9.38 11 -4.76 11 0 11 C0 7.37 0 3.74 0 0 Z " fill="#090957" transform="translate(897,135)"/>
<path d="M0 0 C2.8125 2.1875 2.8125 2.1875 3.8125 5.1875 C2.65234375 5.11789063 2.65234375 5.11789063 1.46875 5.046875 C-5.2723656 4.81327198 -10.70634364 4.93202936 -16.1875 9.1875 C-19.55244206 13.52936073 -20.29360536 17.66179084 -20.39282227 23.04785156 C-20.41276749 24.00854553 -20.43271271 24.9692395 -20.45326233 25.95904541 C-20.46997482 26.98834167 -20.48668732 28.01763794 -20.50390625 29.078125 C-20.52468735 30.13787537 -20.54546844 31.19762573 -20.56687927 32.28948975 C-20.63222186 35.67209438 -20.69118881 39.05477612 -20.75 42.4375 C-20.79319975 44.73177878 -20.83681451 47.02604979 -20.88085938 49.3203125 C-20.98866793 54.94263048 -21.08785553 60.56500766 -21.1875 66.1875 C-28.1175 66.1875 -35.0475 66.1875 -42.1875 66.1875 C-42.1875 64.2075 -42.1875 62.2275 -42.1875 60.1875 C-37.2375 60.1875 -32.2875 60.1875 -27.1875 60.1875 C-27.20844727 58.67921631 -27.22939453 57.17093262 -27.25097656 55.61694336 C-27.32353537 50.00554956 -27.36935811 44.39419701 -27.40722656 38.7824707 C-27.42730571 36.35661844 -27.45457475 33.93081437 -27.48925781 31.50512695 C-27.53793678 28.01241138 -27.5605065 24.52033741 -27.578125 21.02734375 C-27.59877014 19.94791 -27.61941528 18.86847626 -27.64068604 17.7563324 C-27.64259074 11.32253467 -27.05860258 7.39950708 -23.1875 2.1875 C-16.69245032 -3.08972787 -7.51614166 -4.01377462 0 0 Z " fill="#090957" transform="translate(641.1875,147.8125)"/>
<path d="M0 0 C2.31 0 4.62 0 7 0 C7 26.07 7 52.14 7 79 C0.07 79 -6.86 79 -14 79 C-14 77.02 -14 75.04 -14 73 C-9.38 73 -4.76 73 0 73 C0 48.91 0 24.82 0 0 Z " fill="#090956" transform="translate(836,285)"/>
<path d="M0 0 C2.31 0 4.62 0 7 0 C7 26.07 7 52.14 7 79 C0.07 79 -6.86 79 -14 79 C-14 77.02 -14 75.04 -14 73 C-9.38 73 -4.76 73 0 73 C0 48.91 0 24.82 0 0 Z " fill="#0A0B5C" transform="translate(707,135)"/>
<path d="M0 0 C1.13985352 -0.0299707 1.13985352 -0.0299707 2.30273438 -0.06054688 C10.3386576 -0.05368443 16.08133028 3.2039765 22.0625 8.4375 C21.7325 9.0975 21.4025 9.7575 21.0625 10.4375 C20.010625 9.9425 18.95875 9.4475 17.875 8.9375 C10.1194549 6.04979704 0.82072188 6.30857632 -6.875 9.3359375 C-14.64201411 13.48422913 -18.76003589 19.24299003 -21.6171875 27.37109375 C-24.39462783 36.82580503 -22.78057216 45.21592917 -19.9375 54.4375 C-19.59468543 55.76842714 -19.25765262 57.10094054 -18.9375 58.4375 C-22.45102947 57.02461262 -23.79105899 55.57002331 -25.5625 52.25 C-26.16964844 51.14591797 -26.16964844 51.14591797 -26.7890625 50.01953125 C-29.34879971 44.26447582 -30.30130679 38.82645525 -30.25 32.5625 C-30.24581055 31.86141113 -30.24162109 31.16032227 -30.23730469 30.43798828 C-30.04464231 21.58166778 -27.69217232 14.27517159 -21.37109375 7.84375 C-14.79001146 1.8368561 -8.75685755 -0.08128729 0 0 Z " fill="#090957" transform="translate(472.9375,125.5625)"/>
<path d="M0 0 C1.98 0 3.96 0 6 0 C6 26.07 6 52.14 6 79 C-0.93 79 -7.86 79 -15 79 C-15 77.02 -15 75.04 -15 73 C-10.05 73 -5.1 73 0 73 C0 48.91 0 24.82 0 0 Z " fill="#090956" transform="translate(685,285)"/>
<path d="M0 0 C1.98 0 3.96 0 6 0 C6 26.07 6 52.14 6 79 C-0.6 79 -7.2 79 -14 79 C-14 77.02 -14 75.04 -14 73 C-9.38 73 -4.76 73 0 73 C0 48.91 0 24.82 0 0 Z " fill="#090956" transform="translate(549,285)"/>
<path d="M0 0 C1.98 0 3.96 0 6 0 C6 26.07 6 52.14 6 79 C-0.6 79 -7.2 79 -14 79 C-14 77.02 -14 75.04 -14 73 C-9.38 73 -4.76 73 0 73 C0 48.91 0 24.82 0 0 Z " fill="#090956" transform="translate(841,135)"/>
<path d="M0 0 C28.2 0 28.2 0 35.625 6.1875 C36.27726562 6.71730469 36.92953125 7.24710937 37.6015625 7.79296875 C38.06304687 8.19128906 38.52453125 8.58960938 39 9 C38.67 9.66 38.34 10.32 38 11 C36.33984375 10.25130208 34.6796875 9.50260417 33.01953125 8.75390625 C24.53533122 5.58669038 14.64643723 6.43232186 6 6 C6 25.47 6 44.94 6 65 C4.02 65 2.04 65 0 65 C0 43.55 0 22.1 0 0 Z " fill="#090957" transform="translate(447,276)"/>
<path d="M0 0 C6.09573361 3.83160398 9.02109261 9.89660735 10.65646362 16.75177002 C11.82542397 23.78352415 12.26971901 30.55019235 12.1953125 37.671875 C12.1924826 38.72030579 12.18965271 39.76873657 12.18673706 40.84893799 C12.17567322 44.14941545 12.15059568 47.44960661 12.125 50.75 C12.11495233 53.00780854 12.10582964 55.2656214 12.09765625 57.5234375 C12.07749332 63.0158201 12.0383191 68.50759517 12 74 C5.07 74 -1.86 74 -9 74 C-9 72.02 -9 70.04 -9 68 C-4.38 68 0.24 68 5 68 C4.95565769 60.36815376 4.88562252 52.73711988 4.79248047 45.10571289 C4.76437439 42.51333098 4.74310871 39.92086503 4.72900391 37.32836914 C4.70743134 33.58696788 4.66070492 29.84656622 4.609375 26.10546875 C4.60814636 24.95918503 4.60691772 23.81290131 4.60565186 22.63188171 C4.48410628 15.84957025 3.46397431 10.41773072 0.85357666 4.14082336 C0 2 0 2 0 0 Z " fill="#080854" transform="translate(797,140)"/>
<path d="M0 0 C6.98751331 5.08182786 10.38146452 11.49565461 12 20 C12.26942608 24.16710464 12.2329434 28.32179919 12.1953125 32.49609375 C12.1924826 33.68477554 12.18965271 34.87345734 12.18673706 36.09815979 C12.17558206 39.87804418 12.15048566 43.65768776 12.125 47.4375 C12.11496417 50.00715803 12.10583937 52.57681978 12.09765625 55.14648438 C12.07565797 61.43108174 12.04116001 67.7155001 12 74 C5.07 74 -1.86 74 -9 74 C-9 72.02 -9 70.04 -9 68 C-4.05 68 0.9 68 6 68 C5.90606967 60.9013872 5.79988828 53.80309963 5.68261719 46.70483398 C5.64446142 44.29277492 5.60958576 41.88066154 5.578125 39.46850586 C5.53218264 35.99052595 5.47423671 32.51291558 5.4140625 29.03515625 C5.40251129 27.96604507 5.39096008 26.8969339 5.37905884 25.79542542 C5.2084052 17.03175989 4.17740693 9.78516747 0 2 C0 1.34 0 0.68 0 0 Z " fill="#090956" transform="translate(663,140)"/>
<path d="M0 0 C2.31 0 4.62 0 7 0 C7 5.61 7 11.22 7 17 C1.06 17 -4.88 17 -11 17 C-11 29.87 -11 42.74 -11 56 C-16 55 -16 55 -17.29830933 53.19537354 C-18.0172798 50.94593683 -18.2419548 49.22885811 -18.22705078 46.87402344 C-18.22689972 46.07349548 -18.22674866 45.27296753 -18.22659302 44.44818115 C-18.21110916 43.16672211 -18.21110916 43.16672211 -18.1953125 41.859375 C-18.1924826 40.97719299 -18.18965271 40.09501099 -18.18673706 39.18609619 C-18.17555961 36.37392501 -18.15045951 33.5620746 -18.125 30.75 C-18.11496705 28.84115044 -18.10584175 26.93229588 -18.09765625 25.0234375 C-18.07733146 20.34873592 -18.03817834 15.67472619 -18 11 C-12.06 11 -6.12 11 0 11 C0 7.37 0 3.74 0 0 Z " fill="#090A5A" transform="translate(745,285)"/>
<path d="M0 0 C6.75 -0.125 6.75 -0.125 9 1 C9 2.65 9 4.3 9 6 C11.475 6.495 11.475 6.495 14 7 C14 8.98 14 10.96 14 13 C12.35 13 10.7 13 9 13 C9 16.96 9 20.92 9 25 C10.65 25.33 12.3 25.66 14 26 C14 27.98 14 29.96 14 32 C9.45567555 32.44552201 6.08300305 32.58662665 2 30.375 C-1.20233611 24.97105782 -0.90809373 19.17443052 -1 13 C-1.66 13 -2.32 13 -3 13 C-5.31 19.27 -7.62 25.54 -10 32 C-12.97 32 -15.94 32 -19 32 C-19 31.67 -19 31.34 -19 31 C-16.69 31 -14.38 31 -12 31 C-11.86271484 29.80503906 -11.86271484 29.80503906 -11.72265625 28.5859375 C-10.80366698 24.02576372 -9.17100189 19.92957697 -7.4375 15.625 C-6.9434668 14.37783203 -6.9434668 14.37783203 -6.43945312 13.10546875 C-5.63155238 11.06815382 -4.8182989 9.03315558 -4 7 C-5.65 7 -7.3 7 -9 7 C-9 6.67 -9 6.34 -9 6 C-6.03 6 -3.06 6 0 6 C0 4.02 0 2.04 0 0 Z " fill="#162ABC" transform="translate(953,277)"/>
<path d="M0 0 C15 0 15 0 21 3 C22.24620531 6.73861594 22.62608619 10.12279154 22 14 C20.1875 17 20.1875 17 17 19 C13.22853008 19.40786964 9.81436992 19.22978132 6 19 C6 22.96 6 26.92 6 31 C4.02 31 2.04 31 0 31 C0 20.77 0 10.54 0 0 Z M9 7 C9 9.31 9 11.62 9 14 C10.65 13.67 12.3 13.34 14 13 C14.38218767 11.34385343 14.71395102 9.67542976 15 8 C13.93354885 6.70366379 13.93354885 6.70366379 11.4375 6.9375 C10.633125 6.958125 9.82875 6.97875 9 7 Z " fill="#1B33D5" transform="translate(900,277)"/>
<path d="M0 0 C3.76726509 1.77200988 6.49082946 3.53473281 8.609375 7.2421875 C7.97 7.0771875 7.330625 6.9121875 6.671875 6.7421875 C-0.95818678 5.49646313 -6.8783985 5.74283101 -13.390625 10.2421875 C-18.29097654 14.87765518 -20.0502058 21.12167816 -20.765625 27.6796875 C-20.26662617 32.42017643 -18.91285468 36.73892469 -17.390625 41.2421875 C-21.86234364 39.19342938 -24.26785855 36.4877204 -26.48046875 32.0625 C-28.53954613 25.68201131 -28.67800966 16.89687039 -26.4453125 10.55859375 C-20.61867326 0.86585111 -10.96537618 -3.47595258 0 0 Z " fill="#090957" transform="translate(802.390625,296.7578125)"/>
<path d="M0 0 C2.46542847 1.72579993 4.49267617 3.51106188 6.5 5.75 C5.84 6.08 5.18 6.41 4.5 6.75 C3.51 6.42 2.52 6.09 1.5 5.75 C-5.04307744 4.96276583 -10.05931201 5.99097921 -15.5 9.75 C-20.40035154 14.38546768 -22.1595808 20.62949066 -22.875 27.1875 C-22.37600117 31.92798893 -21.02222968 36.24673719 -19.5 40.75 C-22.88256721 39.35802671 -24.33688682 37.9474504 -26.1875 34.8125 C-26.60386719 34.12285156 -27.02023437 33.43320312 -27.44921875 32.72265625 C-30.77307289 26.48270703 -30.63765668 17.94957837 -28.81640625 11.2265625 C-23.49374688 -0.30218518 -11.71479197 -4.18385428 0 0 Z " fill="#090958" transform="translate(613.5,297.25)"/>
<path d="M0 0 C1.134375 0.020625 2.26875 0.04125 3.4375 0.0625 C3.7675 2.0425 4.0975 4.0225 4.4375 6.0625 C5.7575 6.0625 7.0775 6.0625 8.4375 6.0625 C8.4375 6.7225 8.4375 7.3825 8.4375 8.0625 C9.0975 8.0625 9.7575 8.0625 10.4375 8.0625 C10.4375 10.0425 10.4375 12.0225 10.4375 14.0625 C8.4575 14.0625 6.4775 14.0625 4.4375 14.0625 C4.4375 17.6925 4.4375 21.3225 4.4375 25.0625 C5.7575 25.0625 7.0775 25.0625 8.4375 25.0625 C8.4375 25.7225 8.4375 26.3825 8.4375 27.0625 C9.0975 27.0625 9.7575 27.0625 10.4375 27.0625 C10.4375 29.0425 10.4375 31.0225 10.4375 33.0625 C9.04446395 33.19907216 7.64743879 33.29521149 6.25 33.375 C5.47269531 33.43300781 4.69539062 33.49101562 3.89453125 33.55078125 C0.14116564 32.80488188 -1.24665802 31.04171352 -3.5625 28.0625 C-4.453125 24.58203125 -4.453125 24.58203125 -4.8125 20.875 C-5.13990411 16.31176881 -5.13990411 16.31176881 -6.5625 12.0625 C-6.602492 10.06289988 -6.60596799 8.06202758 -6.5625 6.0625 C-5.9025 6.0625 -5.2425 6.0625 -4.5625 6.0625 C-4.5934375 4.8559375 -4.5934375 4.8559375 -4.625 3.625 C-4.52750049 -0.37247981 -4.13731851 0.07258454 0 0 Z " fill="#1931D1" transform="translate(924.5625,321.9375)"/>
<path d="M0 0 C2.31 0 4.62 0 7 0 C7 0.66 7 1.32 7 2 C7.66 2 8.32 2 9 2 C9 9.92 9 17.84 9 26 C11.64 26 14.28 26 17 26 C17 26.66 17 27.32 17 28 C17.66 28 18.32 28 19 28 C19 29.65 19 31.3 19 33 C13.39 33 7.78 33 2 33 C2 32.34 2 31.68 2 31 C1.34 31 0.68 31 0 31 C0 20.77 0 10.54 0 0 Z " fill="#1B34D7" transform="translate(900,322)"/>
<path d="M0 0 C0.33 0 0.66 0 1 0 C1 3.63 1 7.26 1 11 C1.66 11.33 2.32 11.66 3 12 C1.10807525 12.98669759 -0.78871978 13.9640602 -2.6875 14.9375 C-4.27111328 15.75541016 -4.27111328 15.75541016 -5.88671875 16.58984375 C-13.91930039 20.22819002 -23.76258987 20.07067152 -32 17 C-41.88735314 11.66897028 -41.88735314 11.66897028 -45 7 C-43.948125 7.433125 -43.948125 7.433125 -42.875 7.875 C-41.92625 8.24625 -40.9775 8.6175 -40 9 C-39.13117187 9.34417969 -38.26234375 9.68835938 -37.3671875 10.04296875 C-28.98743371 12.42468531 -18.11891294 12.61670711 -10.1875 8.8125 C-6.58863672 6.63456722 -3.73935998 4.18119224 -1 1 C-0.67 0.67 -0.34 0.34 0 0 Z " fill="#090958" transform="translate(815,347)"/>
<path d="M0 0 C0.33 0 0.66 0 1 0 C1 4.29 1 8.58 1 13 C-9.73357688 18.58145998 -17.61297164 20.6869914 -29.5 17.4375 C-35.69746517 15.42022873 -40.23038564 12.38755223 -45 8 C-44.34 7.67 -43.68 7.34 -43 7 C-41.81094702 7.60362639 -40.64885816 8.2604943 -39.5 8.9375 C-31.57579718 12.61063129 -21.07057923 12.56065273 -12.7890625 10.01171875 C-8.10840966 7.7416724 -2.38945568 4.77891136 0 0 Z " fill="#090957" transform="translate(624,347)"/>
<path d="M0 0 C2.31 0 4.62 0 7 0 C7 5.61 7 11.22 7 17 C3.37370966 17.13621291 -0.24736077 17.23470136 -3.875 17.3125 C-4.88820313 17.35439453 -5.90140625 17.39628906 -6.9453125 17.43945312 C-14.17564654 17.55532386 -20.10900505 16.43625587 -26 12 C-27.27294922 9.8293457 -27.27294922 9.8293457 -28 8 C-27.07058594 8.31710937 -26.14117188 8.63421875 -25.18359375 8.9609375 C-20.20736714 10.38271653 -15.20771147 10.45618923 -10.0625 10.625 C-8.6074707 10.68300781 -8.6074707 10.68300781 -7.12304688 10.7421875 C-4.74898602 10.83574655 -2.37452011 10.91892923 0 11 C0 7.37 0 3.74 0 0 Z " fill="#080955" transform="translate(745,347)"/>
<path d="M0 0 C1.98 0 3.96 0 6 0 C6 5.94 6 11.88 6 18 C4.576875 18.20625 3.15375 18.4125 1.6875 18.625 C-2.22496633 19.46162802 -2.73757505 19.60238644 -5.0625 23.125 C-5.371875 24.07375 -5.68125 25.0225 -6 26 C-8.31 26 -10.62 26 -13 26 C-13.46788961 21.22752594 -13.68514232 18.04912418 -11 13.9375 C-6.97116741 11.33554562 -4.71992657 11.60000622 0 12 C0 8.04 0 4.08 0 0 Z " fill="#090956" transform="translate(896,103)"/>
<path d="M0 0 C3.53909424 1.62607033 4.90124871 2.82883109 6.875 6.25 C8.14849453 10.49498178 8.25641626 12.75959514 7 17 C2.10923826 22.76859077 2.10923826 22.76859077 -2.171875 23.23828125 C-7.97012572 23.40520059 -11.48453345 23.05234178 -16 19 C-16.33 18.01 -16.66 17.02 -17 16 C-16.00419922 16.05220703 -16.00419922 16.05220703 -14.98828125 16.10546875 C-7.96314433 16.39799131 -7.96314433 16.39799131 -2 13 C-0.13934942 9.98132213 0.22854288 7.770458 0.125 4.25 C0.09792969 3.05117188 0.09792969 3.05117188 0.0703125 1.828125 C0.04710937 1.22484375 0.02390625 0.6215625 0 0 Z " fill="#090956" transform="translate(686,253)"/>
<path d="M0 0 C3.26460973 1.80412643 4.88929795 2.83394693 7 6 C7.66624845 10.07463524 7.94496094 14.24356703 5.94921875 17.953125 C3.44712018 20.99402355 1.52236859 22.85045977 -2.42578125 23.23828125 C-10.24266119 23.43925651 -10.24266119 23.43925651 -14.125 21.1875 C-16 19 -16 19 -17 16 C-16.34773437 16.05800781 -15.69546875 16.11601563 -15.0234375 16.17578125 C-8.88936056 16.52150841 -8.88936056 16.52150841 -3.4375 14.0625 C0.13412186 9.57507766 0 5.53899659 0 0 Z " fill="#090956" transform="translate(709,103)"/>
<path d="M0 0 C3.80056743 1.75471333 5.38706138 3.01009921 7 7 C7.31547535 11.96648343 6.73086608 15.10047251 3.5625 19 C-0.50749112 22.17657843 -3.29951193 22.44096588 -8.37890625 22.43359375 C-12.6828556 21.72161405 -15.15983433 19.15991943 -18 16 C-16 15 -16 15 -12.25 15.1875 C-7.83397673 15.25989382 -5.42105941 13.83697609 -2 11 C-0.85185003 8.70370006 -0.69230191 6.92301914 -0.4375 4.375 C-0.35371094 3.55773437 -0.26992188 2.74046875 -0.18359375 1.8984375 C-0.09271484 0.95871094 -0.09271484 0.95871094 0 0 Z " fill="#090956" transform="translate(551,254)"/>
<path d="M0 0 C3.80056743 1.75471333 5.38706138 3.01009921 7 7 C7.31547535 11.96648343 6.73086608 15.10047251 3.5625 19 C-0.50749112 22.17657843 -3.29951193 22.44096588 -8.37890625 22.43359375 C-12.6828556 21.72161405 -15.15983433 19.15991943 -18 16 C-16 15 -16 15 -12.25 15.1875 C-7.83397673 15.25989382 -5.42105941 13.83697609 -2 11 C-0.85185003 8.70370006 -0.69230191 6.92301914 -0.4375 4.375 C-0.35371094 3.55773437 -0.26992188 2.74046875 -0.18359375 1.8984375 C-0.09271484 0.95871094 -0.09271484 0.95871094 0 0 Z " fill="#090956" transform="translate(843,104)"/>
<path d="M0 0 C2.26220703 -0.03979492 2.26220703 -0.03979492 5 1 C6.7377992 3.68521969 7.72799347 6.63698153 8.8046875 9.63671875 C9.29704391 10.94501396 9.29704391 10.94501396 9.79934692 12.27973938 C10.4896049 14.12810603 11.16984563 15.98023969 11.84082031 17.83569336 C12.86806338 20.6683719 13.93118738 23.48551587 15 26.30273438 C15.6662544 28.10075181 16.33038718 29.89955712 16.9921875 31.69921875 C17.3097702 32.54006516 17.62735291 33.38091156 17.95455933 34.24723816 C19.58878947 38.83029112 20.5785699 42.18228051 19 47 C18.01 47.495 18.01 47.495 17 48 C14.73683815 41.80799561 12.47682337 35.61484927 10.21899414 29.42089844 C9.45051348 27.31386301 8.68131242 25.20709019 7.91137695 23.10058594 C6.80490716 20.07295356 5.70103036 17.0443867 4.59765625 14.015625 C4.25283707 13.07382385 3.90801788 12.13202271 3.55274963 11.16168213 C3.23249313 10.28107117 2.91223663 9.40046021 2.58227539 8.49316406 C2.30025772 7.72039124 2.01824005 6.94761841 1.72767639 6.15142822 C1.03931946 4.11625085 0.48792983 2.09130285 0 0 Z " fill="#080957" transform="translate(925,135)"/>
<path d="M0 0 C0.66 0 1.32 0 2 0 C2 10.89 2 21.78 2 33 C-0.31 33 -2.62 33 -5 33 C-5 32.34 -5 31.68 -5 31 C-3.68 31 -2.36 31 -1 31 C-1.00523682 30.09644775 -1.01047363 29.19289551 -1.01586914 28.26196289 C-1.03287686 24.92048511 -1.04543333 21.57905308 -1.05493164 18.23754883 C-1.05997101 16.78929927 -1.06680253 15.34105483 -1.07543945 13.89282227 C-1.08752247 11.81525412 -1.09323211 9.73775303 -1.09765625 7.66015625 C-1.10289307 6.40855713 -1.10812988 5.15695801 -1.11352539 3.86743164 C-1 1 -1 1 0 0 Z " fill="#0B0F66" transform="translate(961,322)"/>
<path d="M0 0 C3 2 3 2 3.875 5.3125 C4.01556334 9.45911846 3.6251597 10.84980836 1 14 C-3.24996508 17.52139964 -6.71872247 17.26853954 -12 17 C-12 20.63 -12 24.26 -12 28 C-14.31 28 -16.62 28 -19 28 C-17.68 27.67 -16.36 27.34 -15 27 C-15 23.04 -15 19.08 -15 15 C-12.40125 14.87625 -12.40125 14.87625 -9.75 14.75 C-6.40362806 14.41837756 -4.29376491 14.15713007 -1.3125 12.5625 C0.76104129 8.51415749 0.30629641 4.45831437 0 0 Z " fill="#080A5F" transform="translate(921,281)"/>
<path d="M0 0 C1.98 0 3.96 0 6 0 C6 4.62 6 9.24 6 14 C3.69 14 1.38 14 -1 14 C-1.02685938 11.85423363 -1.04633088 9.70837355 -1.0625 7.5625 C-1.07410156 6.36753906 -1.08570313 5.17257812 -1.09765625 3.94140625 C-1 1 -1 1 0 0 Z " fill="#090A5E" transform="translate(728,265)"/>
<path d="M0 0 C3.125 0.25 3.125 0.25 5 1.4375 C6.50832602 3.86758081 6.48523622 5.44015752 6.125 8.25 C5.465 8.91 4.805 9.57 4.125 10.25 C1.36115924 10.03739686 -0.39893621 9.57831986 -2.6875 8 C-4.28475379 5.6461523 -4.16813806 4.03481156 -3.875 1.25 C-2.875 0.25 -2.875 0.25 0 0 Z " fill="#1A33D5" transform="translate(968.875,345.75)"/>
<path d="M0 0 C3.125 0.1875 3.125 0.1875 6.125 2.1875 C6.4375 4.6875 6.4375 4.6875 6.125 7.1875 C5.465 7.8475 4.805 8.5075 4.125 9.1875 C-1.32954545 8.73295455 -1.32954545 8.73295455 -3.875 6.1875 C-4.0625 3.625 -4.0625 3.625 -3.875 1.1875 C-2.875 0.1875 -2.875 0.1875 0 0 Z " fill="#1A31D1" transform="translate(971.875,300.8125)"/>
<path d="M0 0 C0.99 0 1.98 0 3 0 C3 7.92 3 15.84 3 24 C2.01 24 1.02 24 0 24 C0 16.08 0 8.16 0 0 Z " fill="#06095F" transform="translate(906,324)"/>
<path d="M0 0 C0.33 0 0.66 0 1 0 C0.67815391 9.01169038 -2.68288383 16.73256978 -6 25 C-8.97 25 -11.94 25 -15 25 C-15 24.67 -15 24.34 -15 24 C-12.69 24 -10.38 24 -8 24 C-7.86271484 22.80503906 -7.86271484 22.80503906 -7.72265625 21.5859375 C-6.80366698 17.02576372 -5.17100189 12.92957697 -3.4375 8.625 C-2.9434668 7.37783203 -2.9434668 7.37783203 -2.43945312 6.10546875 C-1.63155238 4.06815382 -0.8182989 2.03315558 0 0 Z " fill="#080959" transform="translate(949,284)"/>
<path d="M0 0 C0.66 0 1.32 0 2 0 C2 1.98 2 3.96 2 6 C0.02 6 -1.96 6 -4 6 C-4 9.63 -4 13.26 -4 17 C-4.66 17 -5.32 17 -6 17 C-6 12.71 -6 8.42 -6 4 C-4.02 4 -2.04 4 0 4 C0 2.68 0 1.36 0 0 Z " fill="#080A5C" transform="translate(933,330)"/>
<path d="M0 0 C0.99 0 1.98 0 3 0 C3 1.65 3 3.3 3 5 C-2.61 5 -8.22 5 -14 5 C-14 4.34 -14 3.68 -14 3 C-9.38 3 -4.76 3 0 3 C0 2.01 0 1.02 0 0 Z " fill="#080958" transform="translate(916,350)"/>
<path d="M0 0 C-0.33 0.66 -0.66 1.32 -1 2 C-1.804375 2.226875 -2.60875 2.45375 -3.4375 2.6875 C-6.40853714 3.84174011 -6.40853714 3.84174011 -7.3125 7.625 C-7.6528125 9.295625 -7.6528125 9.295625 -8 11 C-10 9 -10 9 -10.375 5.5625 C-10 2 -10 2 -8.375 0 C-5.2448901 -1.31794101 -3.24216891 -0.81054223 0 0 Z " fill="#080956" transform="translate(952,335)"/>
<path d="M0 0 C0.66 1.32 1.32 2.64 2 4 C-1.41748222 6.10306598 -4.02085525 6.40603518 -8 6 C-10.875 4.5 -10.875 4.5 -13 3 C-10.06753341 1.5337667 -7.32233257 2.02912611 -4.09375 2.16015625 C-1.77744021 2.21151774 -1.77744021 2.21151774 0 0 Z " fill="#090C62" transform="translate(953,350)"/>
<path d="M0 0 C0.66 0 1.32 0 2 0 C2 1.98 2 3.96 2 6 C0.56344146 6.08131463 -0.8744483 6.13933559 -2.3125 6.1875 C-3.51326172 6.23970703 -3.51326172 6.23970703 -4.73828125 6.29296875 C-7 6 -7 6 -10 3 C-6.7 3.33 -3.4 3.66 0 4 C0 2.68 0 1.36 0 0 Z " fill="#060756" transform="translate(933,349)"/>
<path d="M0 0 C0.66 0.33 1.32 0.66 2 1 C2.125 3.375 2.125 3.375 2 6 C1.34 6.66 0.68 7.32 0 8 C-2.5625 7.75 -2.5625 7.75 -5 7 C-5.33 6.34 -5.66 5.68 -6 5 C-4.35 5 -2.7 5 -1 5 C-0.67 3.35 -0.34 1.7 0 0 Z " fill="#08095B" transform="translate(973,348)"/>
<path d="M0 0 C2.64 0 5.28 0 8 0 C8 0.33 8 0.66 8 1 C6.35 1 4.7 1 3 1 C3 3.31 3 5.62 3 8 C2.01 8 1.02 8 0 8 C0 5.36 0 2.72 0 0 Z " fill="#07095E" transform="translate(906,283)"/>
<path d="M0 0 C0.99 0.33 1.98 0.66 3 1 C3.125 3.375 3.125 3.375 3 6 C2.34 6.66 1.68 7.32 1 8 C-1.125 7.625 -1.125 7.625 -3 7 C-2.01 6.34 -1.02 5.68 0 5 C0.25030977 2.41619823 0.25030977 2.41619823 0 0 Z " fill="#060654" transform="translate(975,302)"/>
<path d="M0 0 C0.99 0 1.98 0 3 0 C3 1.98 3 3.96 3 6 C2.01 6 1.02 6 0 6 C0 4.02 0 2.04 0 0 Z " fill="#090957" transform="translate(704,296)"/>
<path d="M0 0 C0.99 0 1.98 0 3 0 C3 1.98 3 3.96 3 6 C2.01 6 1.02 6 0 6 C0 4.02 0 2.04 0 0 Z " fill="#080855" transform="translate(859,146)"/>
</svg>
